<mxfile host="app.diagrams.net" modified="2020-10-06T07:01:00.700Z" agent="5.0 (Windows NT 10.0; Win64; x64) AppleWebKit/537.36 (KHTML, like Gecko) Chrome/85.0.4183.121 Safari/537.36" etag="tKbrvRIrz-J_9LYnRySa" version="13.7.7" type="github">
  <diagram id="R2lEEEUBdFMjLlhIrx00" name="Page-1">
    <mxGraphModel dx="1221" dy="682" grid="0" gridSize="10" guides="1" tooltips="1" connect="1" arrows="1" fold="1" page="1" pageScale="1" pageWidth="850" pageHeight="1100" background="#FFFFFF" math="0" shadow="0" extFonts="Permanent Marker^https://fonts.googleapis.com/css?family=Permanent+Marker">
      <root>
        <mxCell id="0" />
        <mxCell id="1" parent="0" />
        <mxCell id="fLak2IIg4NW9NSZvau48-38" value="" style="whiteSpace=wrap;html=1;align=center;fillColor=none;strokeColor=#990000;strokeWidth=2;dashed=1;" vertex="1" parent="1">
          <mxGeometry x="79" y="384.5" width="744" height="194" as="geometry" />
        </mxCell>
        <mxCell id="fLak2IIg4NW9NSZvau48-9" value="автосалон" style="whiteSpace=wrap;html=1;align=center;" vertex="1" parent="1">
          <mxGeometry x="301" y="105" width="100" height="40" as="geometry" />
        </mxCell>
        <mxCell id="fLak2IIg4NW9NSZvau48-10" value="авто" style="whiteSpace=wrap;html=1;align=center;" vertex="1" parent="1">
          <mxGeometry x="526" y="105" width="100" height="40" as="geometry" />
        </mxCell>
        <mxCell id="fLak2IIg4NW9NSZvau48-12" value="транзакции" style="whiteSpace=wrap;html=1;align=center;" vertex="1" parent="1">
          <mxGeometry x="497" y="404" width="309" height="155" as="geometry" />
        </mxCell>
        <mxCell id="fLak2IIg4NW9NSZvau48-13" value="драйв" style="whiteSpace=wrap;html=1;align=center;" vertex="1" parent="1">
          <mxGeometry x="526" y="165" width="100" height="40" as="geometry" />
        </mxCell>
        <mxCell id="fLak2IIg4NW9NSZvau48-14" value="сервис" style="whiteSpace=wrap;html=1;align=center;" vertex="1" parent="1">
          <mxGeometry x="526" y="227" width="100" height="40" as="geometry" />
        </mxCell>
        <mxCell id="fLak2IIg4NW9NSZvau48-16" value="кредитование" style="whiteSpace=wrap;html=1;align=center;" vertex="1" parent="1">
          <mxGeometry x="103" y="471" width="100" height="40" as="geometry" />
        </mxCell>
        <mxCell id="fLak2IIg4NW9NSZvau48-17" value="логи" style="whiteSpace=wrap;html=1;align=center;fillColor=#fff2cc;strokeColor=#d6b656;" vertex="1" parent="1">
          <mxGeometry x="706" y="105" width="100" height="40" as="geometry" />
        </mxCell>
        <mxCell id="fLak2IIg4NW9NSZvau48-18" value="клиенты" style="whiteSpace=wrap;html=1;align=center;" vertex="1" parent="1">
          <mxGeometry x="103" y="411" width="100" height="40" as="geometry" />
        </mxCell>
        <mxCell id="fLak2IIg4NW9NSZvau48-19" value="конкретная марка&amp;nbsp;" style="whiteSpace=wrap;html=1;align=center;" vertex="1" parent="1">
          <mxGeometry x="103" y="105" width="100" height="40" as="geometry" />
        </mxCell>
        <mxCell id="fLak2IIg4NW9NSZvau48-20" value="" style="edgeStyle=entityRelationEdgeStyle;fontSize=12;html=1;endArrow=ERoneToMany;entryX=0;entryY=0.5;entryDx=0;entryDy=0;exitX=1;exitY=0.5;exitDx=0;exitDy=0;" edge="1" parent="1" source="fLak2IIg4NW9NSZvau48-19" target="fLak2IIg4NW9NSZvau48-9">
          <mxGeometry width="100" height="100" relative="1" as="geometry">
            <mxPoint x="265" y="402" as="sourcePoint" />
            <mxPoint x="365" y="302" as="targetPoint" />
          </mxGeometry>
        </mxCell>
        <mxCell id="fLak2IIg4NW9NSZvau48-24" value="" style="edgeStyle=entityRelationEdgeStyle;fontSize=12;html=1;endArrow=ERoneToMany;exitX=1;exitY=0.5;exitDx=0;exitDy=0;entryX=0;entryY=0.5;entryDx=0;entryDy=0;" edge="1" parent="1" source="fLak2IIg4NW9NSZvau48-9" target="fLak2IIg4NW9NSZvau48-10">
          <mxGeometry width="100" height="100" relative="1" as="geometry">
            <mxPoint x="457" y="217" as="sourcePoint" />
            <mxPoint x="557" y="117" as="targetPoint" />
          </mxGeometry>
        </mxCell>
        <mxCell id="fLak2IIg4NW9NSZvau48-25" style="edgeStyle=orthogonalEdgeStyle;rounded=0;orthogonalLoop=1;jettySize=auto;html=1;exitX=0.5;exitY=1;exitDx=0;exitDy=0;" edge="1" parent="1" source="fLak2IIg4NW9NSZvau48-12" target="fLak2IIg4NW9NSZvau48-12">
          <mxGeometry relative="1" as="geometry" />
        </mxCell>
        <mxCell id="fLak2IIg4NW9NSZvau48-26" value="" style="edgeStyle=entityRelationEdgeStyle;fontSize=12;html=1;endArrow=ERoneToMany;entryX=0;entryY=0.5;entryDx=0;entryDy=0;exitX=1;exitY=0.5;exitDx=0;exitDy=0;" edge="1" parent="1" source="fLak2IIg4NW9NSZvau48-9" target="fLak2IIg4NW9NSZvau48-13">
          <mxGeometry width="100" height="100" relative="1" as="geometry">
            <mxPoint x="407" y="284" as="sourcePoint" />
            <mxPoint x="507" y="184" as="targetPoint" />
          </mxGeometry>
        </mxCell>
        <mxCell id="fLak2IIg4NW9NSZvau48-27" value="" style="edgeStyle=entityRelationEdgeStyle;fontSize=12;html=1;endArrow=ERoneToMany;entryX=0;entryY=0.5;entryDx=0;entryDy=0;exitX=1;exitY=0.5;exitDx=0;exitDy=0;" edge="1" parent="1" source="fLak2IIg4NW9NSZvau48-9" target="fLak2IIg4NW9NSZvau48-14">
          <mxGeometry width="100" height="100" relative="1" as="geometry">
            <mxPoint x="395" y="310" as="sourcePoint" />
            <mxPoint x="495" y="210" as="targetPoint" />
          </mxGeometry>
        </mxCell>
        <mxCell id="fLak2IIg4NW9NSZvau48-32" value="" style="edgeStyle=entityRelationEdgeStyle;fontSize=12;html=1;endArrow=ERoneToMany;exitX=0.5;exitY=1;exitDx=0;exitDy=0;entryX=0;entryY=0.5;entryDx=0;entryDy=0;" edge="1" parent="1" source="fLak2IIg4NW9NSZvau48-9" target="fLak2IIg4NW9NSZvau48-12">
          <mxGeometry width="100" height="100" relative="1" as="geometry">
            <mxPoint x="404" y="309" as="sourcePoint" />
            <mxPoint x="504" y="209" as="targetPoint" />
          </mxGeometry>
        </mxCell>
        <mxCell id="fLak2IIg4NW9NSZvau48-34" value="" style="edgeStyle=entityRelationEdgeStyle;fontSize=12;html=1;endArrow=ERoneToMany;entryX=0;entryY=0.25;entryDx=0;entryDy=0;exitX=1;exitY=0.5;exitDx=0;exitDy=0;" edge="1" parent="1" source="fLak2IIg4NW9NSZvau48-18" target="fLak2IIg4NW9NSZvau48-12">
          <mxGeometry width="100" height="100" relative="1" as="geometry">
            <mxPoint x="202.99999999999977" y="397" as="sourcePoint" />
            <mxPoint x="497" y="427.25" as="targetPoint" />
          </mxGeometry>
        </mxCell>
      </root>
    </mxGraphModel>
  </diagram>
</mxfile>
